<svg xmlns="http://www.w3.org/2000/svg" x="0px" y="0px"
width="50" height="50"
viewBox="0 0 172 172"
style=" fill:#000000;"><g fill="none" fill-rule="nonzero" stroke="none" stroke-width="1" stroke-linecap="butt" stroke-linejoin="miter" stroke-miterlimit="10" stroke-dasharray="" stroke-dashoffset="0" font-family="none" font-weight="none" font-size="none" text-anchor="none" style="mix-blend-mode: normal"><path d="M0,172v-172h172v172z" fill="none"></path><g fill="#ffffff"><path d="M27.52,-0.5375l-2.795,3.655c-1.00781,1.34375 -24.725,33.09656 -24.725,51.9225c0,15.42625 12.09375,27.52 27.52,27.52c15.42625,0 27.52,-12.09375 27.52,-27.52c0,-18.82594 -23.71719,-50.57875 -24.725,-51.9225zM144.48,30.745l-2.6875,3.655c-1.00781,1.33031 -24.8325,32.76063 -24.8325,51.6c0,15.42625 12.09375,27.52 27.52,27.52c15.42625,0 27.52,-12.09375 27.52,-27.52c0,-18.83937 -23.82469,-50.26969 -24.8325,-51.6zM75.68,88.9025l-2.795,3.655c-1.00781,1.34375 -24.725,33.09656 -24.725,51.9225c0,15.42625 12.09375,27.52 27.52,27.52c15.42625,0 27.52,-12.09375 27.52,-27.52c0,-18.82594 -23.71719,-50.57875 -24.725,-51.9225z"></path></g></g></svg>