<?xml version="1.0" encoding="iso-8859-1"?>
<!-- Generator: Adobe Illustrator 19.0.0, SVG Export Plug-In . SVG Version: 6.00 Build 0)  -->
<svg version="1.1" id="Capa_1" xmlns="http://www.w3.org/2000/svg" xmlns:xlink="http://www.w3.org/1999/xlink" x="0px" y="0px"
	 viewBox="0 0 508.8 508.8" style="enable-background:new 0 0 508.8 508.8;" xml:space="preserve">
<g>
	<g>
		<g>
			<polygon points="258.448,96 211.52,60.8 258.448,25.6 239.248,0 158.176,60.8 239.248,121.6 			"/>
			<path d="M331.232,468.144l9.344,30.592c10.959-3.349,21.655-7.504,32-12.432l-13.76-28.8
				C349.894,461.721,340.675,465.278,331.232,468.144z"/>
			<path d="M272.848,476.8v32c11.448-0.005,22.88-0.84,34.208-2.496L302.4,474.64C292.615,476.08,282.738,476.802,272.848,476.8z"/>
			<path d="M465.368,147.256C422.247,83.191,350.074,44.781,272.848,44.8v32c110.457-0.018,200.014,89.511,200.032,199.968
				c0.011,66.58-33.112,128.8-88.352,165.968l17.92,26.528C508.743,397.719,536.913,253.551,465.368,147.256z"/>
			<path d="M123.728,131.024L3.872,413.376l210.096,89.2l119.856-282.352L123.728,131.024z M197.024,460.624l-151.2-64.16
				l94.848-223.472l151.2,64.16L197.024,460.624z"/>
		</g>
	</g>
</g>
<g>
</g>
<g>
</g>
<g>
</g>
<g>
</g>
<g>
</g>
<g>
</g>
<g>
</g>
<g>
</g>
<g>
</g>
<g>
</g>
<g>
</g>
<g>
</g>
<g>
</g>
<g>
</g>
<g>
</g>
</svg>
